<?xml version="1.0" encoding="UTF-8"?>
<svg id="Layer_1" data-name="Layer 1" xmlns="http://www.w3.org/2000/svg" viewBox="0 0 512 512">
  <defs>
    <style>
      .cls-1 {
        fill: #c79b3d;
      }

      .cls-1, .cls-2 {
        stroke-width: 0px;
      }

      .cls-2 {
        fill: none;
      }
    </style>
  </defs>
  <path class="cls-1" d="M256,145.5c-61.03,0-110.5,49.47-110.5,110.5s49.47,110.5,110.5,110.5,110.5-49.47,110.5-110.5-49.47-110.5-110.5-110.5ZM277.29,314.7c-43.54,0-78.85-35.3-78.85-78.85s35.3-78.85,78.85-78.85,78.85,35.3,78.85,78.85-35.3,78.85-78.85,78.85ZM256,145.5c-61.03,0-110.5,49.47-110.5,110.5s49.47,110.5,110.5,110.5,110.5-49.47,110.5-110.5-49.47-110.5-110.5-110.5ZM277.29,314.7c-43.54,0-78.85-35.3-78.85-78.85s35.3-78.85,78.85-78.85,78.85,35.3,78.85,78.85-35.3,78.85-78.85,78.85ZM446.9,256l62.3-90.4c3.1-4.5,3.7-10.2,1.6-15.2-2.1-5-6.6-8.6-11.9-9.6l-107.9-19.8-19.9-107.9c-1-5.3-4.6-9.8-9.6-11.9-5-2.1-10.7-1.5-15.2,1.6l-90.3,62.3L165.7,2.8c-4.5-3.1-10.2-3.7-15.2-1.6-5,2.1-8.6,6.6-9.6,11.9l-19.9,107.9-107.9,19.9c-5.3,1-9.8,4.6-11.9,9.6s-1.5,10.7,1.6,15.2l62.3,90.3L2.8,346.3c-3.1,4.5-3.7,10.2-1.6,15.2s6.6,8.6,11.9,9.6l107.9,19.9,19.9,107.9c1,5.3,4.6,9.8,9.6,11.9s10.7,1.5,15.2-1.6l90.3-62.3,90.3,62.3c4.5,3.1,10.2,3.7,15.2,1.6s8.6-6.6,9.6-11.9l19.9-107.9,107.9-19.9c5.3-1,9.8-4.6,11.9-9.6,2.1-5,1.5-10.7-1.6-15.2l-62.3-90.3ZM256,405.49c-82.56,0-149.49-66.93-149.49-149.49s66.93-149.49,149.49-149.49,149.49,66.93,149.49,149.49-66.93,149.49-149.49,149.49ZM256,145.5c-61.03,0-110.5,49.47-110.5,110.5s49.47,110.5,110.5,110.5,110.5-49.47,110.5-110.5-49.47-110.5-110.5-110.5ZM277.29,314.7c-43.54,0-78.85-35.3-78.85-78.85s35.3-78.85,78.85-78.85,78.85,35.3,78.85,78.85-35.3,78.85-78.85,78.85ZM256,145.5c-61.03,0-110.5,49.47-110.5,110.5s49.47,110.5,110.5,110.5,110.5-49.47,110.5-110.5-49.47-110.5-110.5-110.5ZM277.29,314.7c-43.54,0-78.85-35.3-78.85-78.85s35.3-78.85,78.85-78.85,78.85,35.3,78.85,78.85-35.3,78.85-78.85,78.85ZM256,145.5c-61.03,0-110.5,49.47-110.5,110.5s49.47,110.5,110.5,110.5,110.5-49.47,110.5-110.5-49.47-110.5-110.5-110.5ZM277.29,314.7c-43.54,0-78.85-35.3-78.85-78.85s35.3-78.85,78.85-78.85,78.85,35.3,78.85,78.85-35.3,78.85-78.85,78.85Z"/>
  <circle class="cls-2" cx="274.5" cy="238.5" r="68.5"/>
  <path class="cls-2" d="M256,106.51c-82.56,0-149.49,66.93-149.49,149.49s66.93,149.49,149.49,149.49,149.49-66.93,149.49-149.49-66.93-149.49-149.49-149.49ZM256,352c-53.02,0-96-42.98-96-96s42.98-96,96-96,96,42.98,96,96-42.98,96-96,96Z"/>
  <circle class="cls-2" cx="256" cy="256" r="96"/>
</svg>